# File created by Blade
# Date/Time:  Thu Jan 22 16:21:39 2015
# Frame Rate: 120.000 fps
#------------------------------------------------------
:FULLY-SPECIFIED
:DEGREES
2598
root 9.169472 37.371092 3.009180 -4.379409 -3.820139 3.116037
RightUpLeg 10.117606 -8.947954 -6.786128
RightLeg -3.683662 -0.000000 0.000000
RightFoot -11.042081 -15.932029 19.230704
RightToeBase 14.380989 -0.000000 -0.000000
LeftUpLeg 5.385131 5.114669 1.470912
LeftLeg 6.052509 -0.000000 -0.000000
LeftFoot -9.757316 12.407160 -18.300773
LeftToeBase 7.787679 -0.000000 -0.000000
Spine 11.523162 -3.527792 -3.679823
RightShoulder -4.303239 -14.643504 -26.687512
RightArm 10.089731 22.970360 31.562249
RightForeArm 16.955029 0.000000 18.230891
RightHand 4.065260 -0.000000 -4.310369
RightHandThumb1 -24.326973 -0.000000 -32.862282
LeftShoulder -27.902093 34.270125 12.288628
LeftArm 45.261803 -49.565003 -59.564646
LeftForeArm 27.310335 -0.000000 7.433466
LeftHand -23.290894 -0.000000 10.129716
LeftHandThumb1 -26.253704 0.000000 33.147579
Head -6.970563 11.223492 1.602468
2599
root 9.194364 37.380776 3.031420 -4.363338 -3.856862 3.119666
RightUpLeg 9.906671 -9.123477 -6.858765
RightLeg -3.242356 -0.000000 0.000000
RightFoot -11.138268 -15.690853 19.287362
RightToeBase 14.409444 -0.000000 -0.000000
LeftUpLeg 5.622286 5.219798 1.481328
LeftLeg 5.622546 -0.000000 -0.000000
LeftFoot -9.494772 12.211967 -18.429486
LeftToeBase 7.764219 -0.000000 -0.000000
Spine 11.456726 -3.427720 -3.824432
RightShoulder -4.387280 -14.538609 -26.738718
RightArm 9.967124 23.480013 31.442450
RightForeArm 16.600659 -0.000000 18.076604
RightHand 3.987469 0.000000 -3.930516
RightHandThumb1 -24.326973 -0.000000 -32.862282
LeftShoulder -27.755285 34.101613 12.632311
LeftArm 44.901025 -49.894055 -59.008313
LeftForeArm 27.129732 -0.000000 7.203350
LeftHand -23.340878 -0.000000 10.288996
LeftHandThumb1 -26.253704 0.000000 33.147579
Head -6.858915 11.137842 1.758543
2600
root 9.220169 37.388228 3.053209 -4.353478 -3.885601 3.081523
RightUpLeg 9.686564 -9.321848 -6.893359
RightLeg -2.763141 -0.000000 0.000000
RightFoot -11.228606 -15.432487 19.326179
RightToeBase 14.386414 -0.000000 -0.000000
LeftUpLeg 5.852234 5.315466 1.524276
LeftLeg 5.229826 -0.000000 -0.000000
LeftFoot -9.297604 12.059859 -18.467049
LeftToeBase 7.801918 -0.000000 -0.000000
Spine 11.404919 -3.373856 -3.906067
RightShoulder -4.391944 -14.201836 -26.872449
RightArm 9.636316 23.636807 31.284096
RightForeArm 16.545400 0.000000 18.012385
RightHand 3.964601 -0.000000 -4.028790
RightHandThumb1 -24.326973 -0.000000 -32.862282
LeftShoulder -27.645652 33.964677 12.919916
LeftArm 44.654497 -50.272099 -58.597492
LeftForeArm 26.997790 -0.000000 6.981191
LeftHand -23.296375 0.000000 10.514012
LeftHandThumb1 -26.253704 0.000000 33.147579
Head -6.761359 11.097977 1.837392
2601
root 9.250023 37.394733 3.073116 -4.336354 -3.901740 3.061365
RightUpLeg 9.480878 -9.483401 -6.945943
RightLeg -2.332094 -0.000000 0.000000
RightFoot -11.317845 -15.223795 19.373365
RightToeBase 14.378798 -0.000000 -0.000000
LeftUpLeg 6.077164 5.391085 1.520635
LeftLeg 4.814045 -0.000000 -0.000000
LeftFoot -9.111293 11.992635 -18.463546
LeftToeBase 7.836003 -0.000000 -0.000000
Spine 11.345728 -3.321936 -4.009415
RightShoulder -4.476008 -14.192813 -26.923391
RightArm 9.616888 23.928105 31.156025
RightForeArm 16.700306 -0.000000 17.824191
RightHand 4.079986 -0.000000 -3.898634
RightHandThumb1 -24.326973 -0.000000 -32.862282
LeftShoulder -27.479626 33.810194 13.242818
LeftArm 44.362899 -50.682258 -58.209639
LeftForeArm 26.953261 0.000000 6.815379
LeftHand -23.240029 -0.000000 10.415826
LeftHandThumb1 -26.253704 0.000000 33.147579
Head -6.619230 10.905231 1.893937
2602
root 9.281105 37.399909 3.086921 -4.300087 -3.932719 3.003385
RightUpLeg 9.241264 -9.574530 -6.945945
RightLeg -1.897776 -0.000000 0.000000
RightFoot -11.408312 -15.083382 19.476328
RightToeBase 14.302625 -0.000000 -0.000000
LeftUpLeg 6.250021 5.432107 1.545171
LeftLeg 4.451170 -0.000000 -0.000000
LeftFoot -8.977185 11.954072 -18.440145
LeftToeBase 7.915921 -0.000000 -0.000000
Spine 11.287622 -3.262300 -4.051068
RightShoulder -4.534228 -14.100264 -27.020347
RightArm 9.500967 24.183353 31.061230
RightForeArm 16.799639 -0.000000 17.734724
RightHand 4.056573 -0.000000 -3.817922
RightHandThumb1 -24.326973 -0.000000 -32.862282
LeftShoulder -27.389239 33.728771 13.463256
LeftArm 44.259158 -51.085594 -57.954383
LeftForeArm 26.872388 0.000000 6.672733
LeftHand -23.120824 -0.000000 10.338253
LeftHandThumb1 -26.253704 0.000000 33.147579
Head -6.517551 10.806293 1.971390
2603
root 9.313093 37.402283 3.102429 -4.278697 -3.931692 2.924510
RightUpLeg 9.018306 -9.740481 -6.933627
RightLeg -1.442788 -0.000000 0.000000
RightFoot -11.522164 -14.924578 19.520971
RightToeBase 14.267180 -0.000000 -0.000000
LeftUpLeg 6.427928 5.443707 1.575390
LeftLeg 4.105065 -0.000000 -0.000000
LeftFoot -8.886859 11.972063 -18.385061
LeftToeBase 7.984506 -0.000000 -0.000000
Spine 11.249948 -3.278619 -4.062238
RightShoulder -4.522271 -13.896650 -27.185855
RightArm 9.304617 24.388966 31.004925
RightForeArm 16.754121 -0.000000 17.639509
RightHand 4.041384 -0.000000 -3.834436
RightHandThumb1 -24.326973 -0.000000 -32.862282
LeftShoulder -27.279521 33.588398 13.702028
LeftArm 43.983887 -51.423594 -57.591150
LeftForeArm 26.792899 -0.000000 6.556880
LeftHand -23.180726 -0.000000 10.303680
LeftHandThumb1 -26.253704 0.000000 33.147579
Head -6.412810 10.828826 1.967467
2604
root 9.348731 37.403244 3.116785 -4.272955 -3.908478 2.846798
RightUpLeg 8.812703 -10.011064 -6.941242
RightLeg -0.985684 -0.000000 0.000000
RightFoot -11.607714 -14.711847 19.537572
RightToeBase 14.217121 -0.000000 -0.000000
LeftUpLeg 6.603961 5.361496 1.587797
LeftLeg 3.785213 -0.000000 -0.000000
LeftFoot -8.835869 12.053738 -18.296421
LeftToeBase 8.051821 -0.000000 -0.000000
Spine 11.241731 -3.298496 -4.074656
RightShoulder -4.550532 -13.834863 -27.300347
RightArm 9.243638 24.644955 30.963770
RightForeArm 16.808015 -0.000000 17.514291
RightHand 4.076781 0.000000 -3.947701
RightHandThumb1 -24.326973 -0.000000 -32.862282
LeftShoulder -27.189929 33.508859 13.905084
LeftArm 43.848719 -51.780280 -57.340419
LeftForeArm 26.811625 -0.000000 6.436040
LeftHand -23.169324 0.000000 10.101714
LeftHandThumb1 -26.253704 0.000000 33.147579
Head -6.313595 10.810556 1.978059
2605
root 9.387314 37.402685 3.127361 -4.259691 -3.853033 2.760148
RightUpLeg 8.596323 -10.264301 -6.935177
RightLeg -0.522727 -0.000000 0.000000
RightFoot -11.692372 -14.556270 19.511611
RightToeBase 14.162018 -0.000000 -0.000000
LeftUpLeg 6.745970 5.211103 1.585213
LeftLeg 3.497183 -0.000000 -0.000000
LeftFoot -8.826429 12.213719 -18.227703
LeftToeBase 8.116491 -0.000000 -0.000000
Spine 11.249125 -3.346713 -4.072254
RightShoulder -4.575216 -13.690417 -27.419734
RightArm 9.091795 24.874951 30.913308
RightForeArm 16.868977 -0.000000 17.467626
RightHand 3.935601 -0.000000 -3.873285
RightHandThumb1 -24.326973 -0.000000 -32.862282
LeftShoulder -27.127344 33.400879 14.069127
LeftArm 43.774300 -52.130989 -57.122338
LeftForeArm 26.724299 0.000000 6.302733
LeftHand -23.022617 -0.000000 9.800466
LeftHandThumb1 -26.253704 0.000000 33.147579
Head -6.227669 10.747505 2.008021
2606
root 9.421285 37.400821 3.134006 -4.246243 -3.817757 2.668242
RightUpLeg 8.360017 -10.470755 -6.913623
RightLeg -0.041530 -0.000000 0.000000
RightFoot -11.793824 -14.396324 19.516622
RightToeBase 14.097113 -0.000000 -0.000000
LeftUpLeg 6.883400 5.051319 1.596890
LeftLeg 3.212309 -0.000000 -0.000000
LeftFoot -8.841606 12.377990 -18.179651
LeftToeBase 8.235232 -0.000000 -0.000000
Spine 11.267323 -3.347242 -4.090400
RightShoulder -4.586711 -13.503453 -27.490862
RightArm 8.880155 25.027948 30.806984
RightForeArm 16.766415 -0.000000 17.354417
RightHand 3.966954 0.000000 -3.625588
RightHandThumb1 -24.326973 -0.000000 -32.862282
LeftShoulder -27.066025 33.343671 14.283766
LeftArm 43.818868 -52.439777 -57.058112
LeftForeArm 26.681933 -0.000000 6.193805
LeftHand -23.084499 -0.000000 9.751491
LeftHandThumb1 -26.253704 0.000000 33.147579
Head -6.153448 10.672970 2.040682
